<?xml version="1.0" encoding="UTF-8" standalone="no"?>
<!DOCTYPE svg PUBLIC "-//W3C//DTD SVG 1.1//EN" "http://www.w3.org/Graphics/SVG/1.1/DTD/svg11.dtd">
<svg width="100%" height="100%" viewBox="0 0 1083 182" version="1.1" xmlns="http://www.w3.org/2000/svg" xmlns:xlink="http://www.w3.org/1999/xlink" xml:space="preserve" xmlns:serif="http://www.serif.com/" style="fill:#eedee7;fill-rule:evenodd;clip-rule:evenodd;stroke-linejoin:round;stroke-miterlimit:2;">
    <g transform="matrix(1,0,0,1,-1.810863,-3.567873)">
        <g transform="matrix(5.172043,0,0,5.172043,-4530.641019,-5403.60279)">
            <g transform="matrix(1,0,0,1,-9.474012,-16.821206)">
                <path d="M885.811,1062.282L906.811,1062.282C910.311,1062.282 912.853,1063.074 914.436,1064.657C916.019,1066.241 916.811,1068.782 916.811,1072.282L916.811,1077.282C916.811,1080.782 916.019,1083.324 914.436,1084.907C912.853,1086.491 910.311,1087.282 906.811,1087.282L894.811,1087.282L894.811,1097.282L885.811,1097.282L885.811,1062.282ZM907.811,1072.282C907.811,1070.282 906.811,1069.282 904.811,1069.282L894.811,1069.282L894.811,1080.282L904.811,1080.282C906.811,1080.282 907.811,1079.282 907.811,1077.282L907.811,1072.282Z" style="fill-rule:nonzero;"/>
            </g>
            <g transform="matrix(1,0,0,1,-9.474012,-16.821206)">
                <path d="M949.061,1097.282L921.311,1097.282L921.311,1062.282L949.061,1062.282L949.061,1069.282L930.311,1069.282L930.311,1076.032L945.061,1076.032L945.061,1083.032L930.311,1083.032L930.311,1090.282L949.061,1090.282L949.061,1097.282Z" style="fill-rule:nonzero;"/>
            </g>
            <g transform="matrix(1,0,0,1,-9.474012,-16.821206)">
                <path d="M953.061,1062.282L974.061,1062.282C977.561,1062.282 980.103,1063.074 981.686,1064.657C983.269,1066.241 984.061,1068.782 984.061,1072.282L984.061,1076.782C984.061,1079.549 983.603,1081.699 982.686,1083.232C981.769,1084.766 980.311,1085.782 978.311,1086.282L984.561,1097.282L974.811,1097.282L969.061,1086.782L962.061,1086.782L962.061,1097.282L953.061,1097.282L953.061,1062.282ZM975.061,1072.282C975.061,1070.282 974.061,1069.282 972.061,1069.282L962.061,1069.282L962.061,1079.782L972.061,1079.782C974.061,1079.782 975.061,1078.782 975.061,1076.782L975.061,1072.282Z" style="fill-rule:nonzero;"/>
            </g>
            <g transform="matrix(1,0,0,1,-9.474012,-16.821206)">
                <path d="M1019.061,1077.782L1012.061,1090.282L1005.061,1090.282L998.061,1077.782L998.061,1097.282L989.061,1097.282L989.061,1062.282L998.561,1062.282L1008.561,1080.782L1018.561,1062.282L1028.061,1062.282L1028.061,1097.282L1019.061,1097.282L1019.061,1077.782Z" style="fill-rule:nonzero;"/>
            </g>
            <g transform="matrix(1,0,0,1,-9.474012,-16.821206)">
                <path d="M1030.061,1062.282L1039.561,1062.282L1047.811,1079.282L1056.061,1062.282L1065.561,1062.282L1052.311,1088.032L1052.311,1097.282L1043.311,1097.282L1043.311,1088.032L1030.061,1062.282Z" style="fill-rule:nonzero;"/>
            </g>
            <g transform="matrix(1,0,0,1,-9.474012,-16.821206)">
                <path d="M1084.561,1097.282L1075.561,1097.282L1075.561,1069.282L1065.061,1069.282L1065.061,1062.282L1095.061,1062.282L1095.061,1069.282L1084.561,1069.282L1084.561,1097.282Z" style="fill-rule:nonzero;"/>
            </g>
        </g>
    </g>
</svg>
