<?xml version="1.0" encoding="UTF-8" standalone="no"?><!DOCTYPE svg PUBLIC "-//W3C//DTD SVG 1.1//EN" "http://www.w3.org/Graphics/SVG/1.1/DTD/svg11.dtd"><svg width="100%" height="100%" viewBox="0 0 1700 2033" version="1.1" xmlns="http://www.w3.org/2000/svg" xmlns:xlink="http://www.w3.org/1999/xlink" xml:space="preserve" xmlns:serif="http://www.serif.com/" style="fill-rule:evenodd;clip-rule:evenodd;stroke-linejoin:round;stroke-miterlimit:2;"><path id="shield" d="M833.236,2030.581c-29.279,-9.451 -130.14,-71.68 -221.062,-136.39c-225.222,-160.293 -372.683,-322.147 -466.451,-511.979c-93.715,-189.726 -126.234,-356.771 -141.544,-727.083c-4.724,-114.267 -5.69,-312.72 -1.622,-333.063c1.46,-7.299 7.733,-18.35 13.941,-24.558c21.548,-21.548 213.529,-103.121 394.452,-167.603c163.717,-58.35 405.51,-129.905 438.962,-129.905c34.343,0 309.816,83.12 479.157,144.579c160.165,58.129 329.931,131.288 351.068,151.291c6.317,5.978 13.337,17.537 15.602,25.688c5.262,18.943 5.235,173.715 -0.056,321.07c-15.639,435.486 -68.004,646.454 -214.602,864.583c-120.296,178.993 -294.377,333.73 -552.078,490.734c-53.046,32.318 -74.305,39.563 -95.766,32.635l-0,0Zm-6.25,-143.402c24.224,14.758 307.984,-178.944 410.645,-281.732c78.092,-78.189 126.902,-138.998 171.145,-213.218c50.732,-85.106 87.155,-171.757 112.695,-277.489c34.065,-141.025 48.771,-315.997 52.248,-566.529l2.323,-167.333l-16.194,-8.256c-26.804,-13.666 -144.905,-62.629 -220.361,-91.358c-176.434,-67.177 -471.382,-157.843 -497.917,-153.059c-25.021,4.512 -196.892,55.096 -284.795,83.82c-130.434,42.622 -265.011,93.487 -398.076,150.458l-34.954,14.965l2.354,169.048c4.023,288.845 23.01,472.517 63.329,612.595c81.41,282.839 281.19,510.987 637.559,728.088Z" style="fill-rule:nonzero;"/><path id="user" d="M460.051,1392.332c-7.682,-8.488 -7.134,-11.347 33.293,-173.958c22.607,-90.931 44.624,-176.943 48.927,-191.139c10.007,-33.013 39.597,-66.698 71.09,-80.931l21.959,-9.924l433.333,0l21.001,11.085c20.66,10.906 50.423,39.304 60.055,57.301c4.337,8.105 96.028,370.493 96.028,379.531c0,1.964 -2.946,6.517 -6.548,10.118c-5.857,5.857 -46.866,6.548 -388.938,6.548c-381.48,0 -382.409,-0.021 -390.2,-8.63Zm333.602,-532.587c-88.92,-25.928 -147.341,-95.863 -154.717,-185.21c-11.724,-142.021 120.515,-254.339 260.579,-221.324c112.095,26.423 185.041,144.282 156.683,253.154c-24.986,95.928 -110.395,161.956 -208.213,160.966c-16.133,-0.163 -40.583,-3.577 -54.333,-7.587Z" style="fill-rule:nonzero;"/></svg>